<?xml version="1.0" standalone="no"?>
<!DOCTYPE svg PUBLIC "-//W3C//DTD SVG 20010904//EN"
 "http://www.w3.org/TR/2001/REC-SVG-20010904/DTD/svg10.dtd">
<svg version="1.0" xmlns="http://www.w3.org/2000/svg"
 width="692.000000pt" height="745.000000pt" viewBox="0 0 692.000000 745.000000"
 preserveAspectRatio="xMidYMid meet">

<g transform="translate(0.000000,745.000000) scale(0.100000,-0.100000)"
fill="#000000" stroke="none">
<path d="M2986 6403 c-3 -3 2 -12 12 -19 14 -11 14 -13 2 -14 -8 0 -26 -3 -39
-7 -19 -5 -23 -3 -18 9 4 12 -4 17 -39 22 -24 3 -54 2 -67 -3 -12 -5 -67 -12
-122 -15 -163 -11 -288 -26 -299 -35 -10 -8 -30 -13 -107 -25 -15 -2 -42 -12
-60 -22 -26 -14 -30 -19 -16 -22 26 -5 21 -19 -7 -19 -17 0 -23 4 -19 14 4 11
-1 14 -23 11 -21 -2 -30 -10 -34 -28 -5 -23 -11 -25 -72 -30 -63 -5 -70 -8
-113 -48 -25 -24 -45 -47 -45 -52 0 -12 52 -30 80 -29 14 1 32 -1 41 -5 11 -5
24 2 40 20 59 65 69 74 89 74 11 0 33 9 48 19 15 10 62 24 106 31 43 7 97 18
119 26 22 8 50 14 64 14 13 0 40 8 61 19 33 16 46 17 117 8 44 -5 89 -9 100
-9 45 1 141 19 162 30 26 14 137 19 208 8 44 -7 183 -17 398 -30 37 -2 73 -9
81 -15 12 -10 44 -19 191 -51 22 -5 65 -9 95 -9 35 -1 93 -13 160 -35 141 -46
188 -56 238 -49 28 4 49 1 65 -10 13 -8 59 -18 103 -22 43 -4 86 -13 94 -19
26 -22 91 -56 104 -56 27 0 66 -41 66 -70 0 -24 8 -32 53 -55 28 -14 59 -34
67 -44 8 -9 32 -25 54 -35 41 -19 154 -125 190 -179 22 -32 63 -108 86 -157 6
-14 18 -38 26 -53 9 -15 22 -62 30 -105 8 -42 19 -93 23 -112 35 -142 41 -179
35 -227 -5 -40 -3 -58 9 -77 14 -21 17 -68 21 -308 2 -156 -1 -293 -5 -306
-14 -36 -29 -17 -18 22 6 22 6 43 -1 61 -7 19 -7 31 0 41 8 9 7 19 -3 36 -8
13 -18 37 -22 53 -3 17 -12 37 -20 45 -7 8 -18 31 -24 50 -6 19 -27 52 -47 73
-43 45 -84 49 -138 12 -20 -14 -42 -25 -48 -25 -6 0 -42 -16 -79 -35 -64 -32
-119 -45 -119 -27 0 4 9 18 20 32 11 14 20 30 20 37 0 6 19 27 42 46 l42 35
-12 40 c-14 47 -41 60 -81 42 -71 -32 -128 -65 -151 -85 -14 -13 -38 -25 -55
-28 -44 -7 -195 -62 -251 -91 -63 -31 -154 -66 -177 -66 -21 0 -166 -39 -189
-51 -15 -8 -188 -39 -188 -34 0 1 16 20 35 41 29 31 34 44 30 66 -7 29 8 39
19 13 8 -21 97 27 161 87 27 26 58 54 67 62 21 19 34 64 22 76 -5 5 -21 12
-36 15 -23 6 -29 3 -40 -20 -9 -20 -17 -25 -34 -21 -35 9 -142 -45 -211 -107
-13 -11 -29 -17 -40 -13 -11 3 -39 2 -64 -3 -24 -6 -66 -15 -93 -21 -28 -5
-84 -23 -125 -40 -42 -16 -104 -39 -138 -51 -35 -12 -63 -27 -63 -33 0 -6 -19
-11 -47 -11 -49 0 -132 -20 -238 -57 -73 -25 -175 -36 -175 -18 0 7 19 32 43
55 33 34 48 42 68 38 31 -6 46 11 51 57 2 28 8 36 28 40 67 15 95 38 128 102
32 62 33 64 17 101 -18 44 -45 49 -65 11 -18 -33 -56 -60 -100 -72 -27 -7 -34
-13 -32 -28 6 -28 6 -28 61 0 45 22 51 23 51 8 0 -22 -33 -55 -145 -146 -98
-80 -124 -107 -141 -147 -11 -23 -19 -27 -75 -32 -108 -9 -148 -42 -119 -98 9
-15 21 -19 68 -19 34 1 65 7 76 15 11 8 32 15 47 15 16 0 32 8 42 23 14 21 15
21 34 5 26 -23 38 -23 98 6 39 19 60 23 95 19 34 -4 55 0 86 16 23 12 67 26
99 31 32 5 63 14 69 20 5 5 20 10 32 10 12 0 33 9 47 20 14 11 38 20 54 20 15
0 59 16 96 35 38 19 77 35 89 35 11 0 31 9 45 20 15 12 41 20 62 20 65 0 103
18 156 73 44 47 54 53 74 45 22 -8 22 -10 9 -30 -9 -13 -24 -25 -34 -28 -39
-11 -148 -83 -190 -125 -23 -24 -55 -47 -71 -50 -63 -14 -73 -22 -73 -63 0
-28 7 -45 25 -62 21 -20 30 -22 77 -16 58 8 107 21 153 42 17 7 44 13 62 12
18 0 42 8 58 21 22 16 41 21 91 21 45 0 75 6 101 20 21 11 45 20 54 20 9 0 24
9 34 20 13 15 31 20 68 20 33 0 61 7 83 20 30 19 142 45 152 36 2 -3 -10 -12
-27 -21 -17 -8 -31 -22 -31 -30 0 -19 -31 -35 -68 -35 -43 0 -54 -18 -41 -66
17 -61 23 -64 109 -49 154 28 260 67 304 114 23 24 38 31 67 31 50 0 80 15
104 51 30 43 42 43 94 0 81 -68 83 -72 85 -160 1 -44 7 -86 13 -93 26 -31 38
-328 17 -409 -17 -70 -17 -69 1 -69 15 0 14 -51 -3 -73 -5 -7 -15 -39 -22 -72
-12 -56 -38 -125 -78 -205 -12 -25 -27 -37 -54 -45 -20 -5 -40 -13 -44 -17 -4
-5 -34 -8 -68 -8 -65 0 -231 -36 -256 -55 -8 -6 -30 -17 -47 -25 -28 -11 -33
-17 -33 -47 0 -98 55 -134 136 -89 45 25 46 25 51 6 6 -21 24 -28 88 -32 33
-3 41 -7 43 -26 2 -13 -3 -31 -11 -40 -15 -18 -57 -105 -57 -119 0 -5 -8 -16
-17 -25 -10 -9 -31 -36 -48 -59 -44 -61 -168 -179 -215 -203 -40 -21 -100 -46
-111 -46 -6 0 -25 -11 -42 -24 -18 -13 -49 -30 -69 -37 -39 -13 -47 -24 -25
-32 6 -2 -3 -11 -20 -21 -18 -9 -33 -18 -33 -19 0 -11 81 -2 115 13 39 17 45
17 56 4 10 -12 10 -20 1 -35 -7 -10 -8 -19 -3 -19 6 0 13 5 16 10 3 6 17 10
29 10 13 0 29 7 36 15 11 13 10 15 -1 10 -8 -2 -21 -1 -29 5 -13 8 -12 12 7
29 15 14 23 17 26 8 3 -9 9 -9 26 1 28 16 51 15 51 -3 0 -8 5 -15 10 -15 6 0
32 -20 58 -44 26 -24 57 -48 70 -55 12 -6 22 -18 22 -26 0 -7 26 -26 58 -41
31 -15 60 -31 63 -36 8 -12 199 -108 216 -108 7 0 13 -5 13 -11 0 -5 4 -7 10
-4 5 3 8 0 5 -7 -3 -7 13 -35 35 -62 22 -26 40 -57 40 -67 0 -11 19 -39 43
-63 64 -66 105 -119 137 -179 16 -31 41 -67 55 -81 14 -14 25 -31 25 -39 0 -7
14 -26 31 -43 18 -16 40 -48 50 -70 10 -23 26 -47 35 -55 39 -32 93 -184 114
-324 5 -33 10 -65 10 -71 0 -5 13 -20 30 -32 l30 -22 13 32 c12 29 12 39 -3
83 -10 28 -28 91 -41 140 -12 50 -27 96 -32 103 -6 7 -12 25 -13 39 -2 14 -9
33 -16 42 -7 9 -24 38 -38 64 -14 27 -44 71 -67 99 -24 27 -59 79 -80 116 -39
72 -73 120 -137 194 -23 25 -63 79 -91 118 -27 40 -63 86 -80 102 -33 32 -111
88 -124 88 -5 0 -28 16 -52 35 -24 19 -48 35 -52 35 -4 0 -39 20 -77 45 -38
25 -75 45 -83 45 -7 0 -26 14 -40 30 -15 17 -33 30 -40 30 -14 1 -67 45 -67
57 1 15 35 49 68 68 19 11 35 31 38 45 12 55 23 70 52 70 36 0 63 28 56 57 -4
15 4 34 26 62 33 41 33 66 -1 56 -10 -4 -19 -2 -19 3 0 5 9 12 20 15 11 3 23
13 27 24 4 10 17 26 30 36 13 10 23 25 23 33 0 24 50 84 70 84 10 0 23 7 30
15 15 17 46 20 56 4 3 -6 15 -9 25 -6 11 3 19 1 19 -4 0 -5 11 -9 23 -9 26 0
57 28 57 52 0 18 31 48 50 48 7 0 19 8 26 18 35 46 -4 119 -75 141 -41 12 -79
60 -66 82 4 5 1 16 -5 24 -13 16 -4 54 13 56 7 1 21 2 32 3 16 1 21 9 23 40 2
22 13 53 25 70 28 40 32 152 5 160 -28 7 -21 36 10 42 31 6 59 51 42 68 -16
16 -11 49 15 91 38 62 46 86 52 145 8 77 7 104 -7 108 -8 3 -7 9 4 21 10 11
15 44 17 116 1 56 9 118 17 142 8 23 12 55 9 70 -3 15 -13 60 -21 98 -8 39
-15 91 -16 118 0 26 -4 55 -9 65 -13 25 -33 130 -27 141 3 4 -1 34 -9 65 -8
31 -15 69 -15 85 0 15 -11 42 -25 61 -17 23 -25 47 -25 73 0 22 -8 58 -19 81
-10 23 -24 59 -31 81 -7 22 -26 55 -41 73 -17 18 -32 50 -35 73 -5 32 -13 43
-33 50 -14 6 -42 25 -61 43 -19 18 -68 57 -107 86 -46 33 -73 60 -73 71 0 17
-11 24 -33 20 -4 0 -6 4 -5 11 2 7 -12 20 -30 29 -18 9 -44 29 -57 43 -13 14
-32 26 -42 26 -10 0 -33 9 -51 20 -18 11 -49 24 -70 29 -20 5 -75 23 -121 40
-46 17 -96 31 -113 31 -16 0 -41 6 -56 14 -15 7 -66 16 -114 19 -53 4 -96 12
-111 21 -27 19 -156 44 -283 56 -82 8 -108 14 -169 41 -11 5 -78 10 -150 12
-71 1 -135 6 -142 10 -7 4 -16 0 -22 -10 -6 -10 -11 -13 -11 -7 0 25 -59 37
-196 40 -78 2 -144 0 -148 -3z m-78 -34 c-2 -6 -8 -10 -13 -10 -5 0 -11 4 -13
10 -2 6 4 11 13 11 9 0 15 -5 13 -11z m-328 -28 c0 -12 -28 -22 -34 -12 -3 5
-3 11 1 15 9 9 33 7 33 -3z m570 -1616 c7 -9 10 -18 7 -21 -10 -11 -37 5 -37
21 0 19 14 19 30 0z m1634 -134 c8 -13 -14 -28 -51 -36 -42 -9 -42 5 0 27 38
20 44 21 51 9z m386 -1110 c0 -12 -20 -25 -27 -18 -7 7 6 27 18 27 5 0 9 -4 9
-9z m115 -73 c22 -38 13 -58 -25 -58 -23 0 -30 5 -30 19 0 14 -5 18 -20 14
-26 -7 -40 25 -17 42 31 22 73 14 92 -17z m-469 -37 c1 -12 -1 -19 -4 -17 -2
3 -12 1 -22 -4 -25 -14 -31 -1 -13 27 19 28 38 25 39 -6z m144 12 c0 -22 -29
-53 -49 -53 -22 0 -22 41 -2 57 23 18 51 16 51 -4z m95 8 c3 -5 1 -12 -4 -15
-5 -3 -11 1 -15 9 -6 16 9 21 19 6z m-175 -11 c0 -5 -4 -10 -10 -10 -5 0 -10
5 -10 10 0 6 5 10 10 10 6 0 10 -4 10 -10z m250 -4 c0 -2 -7 -7 -16 -10 -8 -3
-12 -2 -9 4 6 10 25 14 25 6z m-250 -86 c0 -10 3 -25 6 -34 11 -28 -14 -17
-28 12 -8 16 -23 28 -36 30 -23 4 -23 4 -5 21 16 16 20 16 41 3 12 -8 22 -22
22 -32z m321 31 c-7 -5 -10 -14 -7 -20 4 -6 3 -11 -2 -11 -12 0 -23 26 -15 34
4 3 13 6 22 6 13 0 13 -2 2 -9z m-451 -13 c0 -14 -18 -17 -28 -5 -8 10 -6 13
9 13 10 0 19 -4 19 -8z m414 -27 c7 -10 -22 -37 -30 -28 -9 8 3 37 15 37 5 0
12 -4 15 -9z m-122 -13 c-9 -9 -15 -9 -24 0 -9 9 -7 12 12 12 19 0 21 -3 12
-12z"/>
<path d="M1873 6090 c-18 -11 -40 -17 -48 -14 -8 4 -17 -1 -21 -10 -4 -10 -18
-16 -39 -16 -24 0 -46 -12 -91 -51 -32 -29 -67 -65 -78 -81 -10 -16 -34 -45
-52 -64 -19 -19 -34 -40 -34 -47 1 -6 10 -1 21 12 27 33 34 21 13 -22 -17 -35
-49 -62 -37 -31 3 7 0 14 -6 14 -10 0 -15 -13 -12 -32 0 -4 -12 -5 -28 -2 -24
5 -32 1 -47 -22 -10 -16 -35 -46 -56 -66 -39 -39 -45 -52 -28 -63 14 -9 12
-25 -2 -25 -17 -1 -83 -88 -74 -97 4 -4 11 -1 16 7 16 26 20 5 5 -24 -8 -16
-15 -35 -15 -43 0 -8 -6 -13 -12 -10 -7 2 -12 15 -10 27 2 23 2 23 -22 -3 -34
-36 -42 -68 -22 -79 12 -7 15 -20 11 -53 -5 -58 17 -61 35 -5 7 22 21 47 32
56 10 10 18 23 18 29 0 7 27 53 60 103 33 49 60 96 60 103 0 15 92 124 135
159 17 13 58 52 91 87 34 35 68 63 75 63 8 0 28 13 44 29 52 51 112 101 122
101 28 0 62 79 38 86 -5 1 -25 -6 -42 -16z"/>
<path d="M1170 5219 c0 -6 -9 -9 -20 -6 -16 4 -20 0 -20 -19 0 -13 5 -24 10
-24 6 0 10 -4 10 -10 0 -5 -7 -10 -16 -10 -13 0 -15 -6 -9 -27 4 -16 9 -30 11
-33 7 -7 24 22 24 42 0 10 9 33 20 53 24 43 24 45 5 45 -8 0 -15 -5 -15 -11z"/>
<path d="M1076 5092 c-12 -12 -5 -30 14 -35 24 -6 27 -27 4 -27 -12 0 -15 -10
-13 -46 3 -40 0 -49 -24 -66 -23 -17 -27 -25 -22 -52 4 -17 1 -45 -6 -61 -8
-18 -14 -79 -14 -155 -1 -69 -5 -148 -9 -175 -7 -43 -5 -56 13 -85 11 -19 21
-49 21 -67 0 -25 5 -32 23 -35 l22 -3 -21 -21 c-19 -19 -20 -25 -9 -58 7 -20
16 -62 20 -94 11 -90 33 -149 55 -148 27 1 29 -18 3 -22 -23 -3 -30 -20 -15
-37 5 -6 17 -37 27 -69 23 -76 65 -145 88 -146 9 0 17 7 17 15 0 8 -5 15 -10
15 -6 0 -5 8 2 20 10 16 9 23 -8 42 -17 20 -20 34 -17 97 1 41 7 89 12 105 5
17 12 72 16 121 4 50 13 100 21 112 8 12 14 35 14 51 0 50 28 64 165 82 39 5
97 14 130 19 33 5 83 13 110 16 41 6 57 15 87 47 26 27 51 43 79 49 23 6 55
21 71 34 16 14 37 25 46 25 9 0 29 7 45 14 17 9 27 11 27 4 0 -26 29 16 35 51
4 26 14 42 31 51 39 21 29 33 -23 25 -41 -6 -90 -30 -188 -93 -11 -6 -29 -16
-40 -21 -12 -5 -27 -16 -34 -25 -28 -33 -155 -83 -256 -100 -119 -20 -320 -24
-389 -9 -81 18 -82 20 -60 223 9 80 8 130 -3 170 -6 22 -6 46 0 65 19 63 25
130 14 162 -10 29 -38 49 -51 35z m967 -458 c8 -9 -11 -44 -23 -44 -6 0 -10
11 -10 25 0 23 18 34 33 19z m-877 -414 c0 -94 -5 -102 -42 -76 -17 13 -17 15
-2 21 16 6 16 17 6 124 -1 16 4 21 20 21 17 0 19 -9 18 -90z"/>
<path d="M2253 4827 c-21 -18 -49 -39 -62 -48 -12 -8 -29 -31 -35 -50 -11 -32
-11 -38 5 -47 15 -10 21 -7 38 17 23 32 27 51 10 51 -7 0 5 11 25 25 20 14 50
25 66 25 32 0 41 25 18 48 -18 18 -24 15 -65 -21z"/>
<path d="M2906 4733 c-3 -3 -6 -14 -6 -24 0 -9 -7 -16 -16 -15 -9 0 -19 -5
-21 -11 -7 -20 32 -15 50 5 10 10 17 24 17 30 0 14 -15 24 -24 15z"/>
<path d="M2728 4640 c22 -21 67 -27 77 -10 4 6 -7 10 -24 10 -17 0 -31 5 -31
10 0 6 -10 10 -22 10 l-22 0 22 -20z"/>
<path d="M2643 4608 l-23 -11 27 -14 c31 -16 49 -4 31 19 -10 13 -18 14 -35 6z"/>
<path d="M2555 4570 c-22 -11 -48 -19 -57 -20 -9 0 -26 -13 -38 -30 -20 -28
-20 -30 -3 -30 10 0 31 7 47 15 15 8 34 15 40 15 17 0 70 57 59 63 -5 3 -26
-3 -48 -13z"/>
<path d="M2359 4501 c-20 -10 -46 -25 -59 -34 -18 -12 -37 -15 -85 -10 -41 4
-65 2 -69 -6 -4 -6 -34 -11 -68 -11 l-61 0 26 -20 c30 -24 79 -26 97 -5 7 9
29 15 51 15 22 0 39 5 39 11 0 8 5 7 15 -1 30 -25 197 42 179 71 -8 13 -25 10
-65 -10z"/>
<path d="M1970 4410 c-11 -11 -29 -20 -40 -20 -12 0 -34 -7 -51 -16 -16 -8
-39 -12 -49 -9 -23 7 -63 -12 -55 -26 4 -5 10 -7 15 -4 5 3 41 8 80 10 80 6
110 17 110 43 0 10 5 23 12 30 7 7 9 12 5 12 -4 0 -16 -9 -27 -20z"/>
<path d="M1775 4197 c-17 -12 -43 -32 -59 -44 -16 -13 -36 -23 -45 -23 -21 0
-68 -48 -73 -75 -3 -21 -47 -35 -49 -16 -3 26 -4 30 -11 37 -4 4 -10 -1 -14
-10 -5 -12 4 -28 27 -52 37 -38 47 -41 91 -18 28 15 31 14 52 -5 13 -12 36
-21 53 -21 31 0 59 22 49 39 -3 5 1 12 10 15 31 12 63 6 78 -16 13 -19 24 -21
83 -20 59 1 76 -3 128 -32 33 -18 65 -31 72 -29 6 2 24 -2 39 -10 21 -11 35
-12 57 -5 24 9 34 7 57 -11 41 -30 67 -27 90 11 23 38 12 68 -26 68 -14 0 -32
7 -40 15 -9 8 -27 17 -42 20 -15 3 -40 12 -55 20 -16 8 -36 15 -45 15 -24 0
-124 39 -143 56 -8 8 -21 14 -28 14 -7 0 -37 12 -67 26 -30 14 -64 24 -74 21
-12 -3 -17 0 -14 8 6 15 -33 45 -56 44 -8 0 -29 -10 -45 -22z m25 -120 c0 4 5
2 12 -5 9 -9 5 -19 -17 -42 -30 -31 -41 -35 -63 -21 -11 6 -11 13 0 37 16 37
28 45 50 33 10 -5 18 -6 18 -2z m156 -48 c3 -6 2 -15 -3 -20 -13 -13 -67 7
-58 21 8 13 52 13 61 -1z"/>
<path d="M4505 4150 c-25 -22 -53 -40 -61 -40 -8 0 -17 -13 -21 -30 -5 -28 -8
-30 -47 -28 -34 3 -41 0 -38 -14 2 -13 -7 -19 -35 -24 -38 -7 -105 -44 -118
-64 -4 -6 -18 -15 -31 -20 -33 -13 -30 -42 7 -62 41 -24 51 -23 83 7 15 14 32
22 38 19 5 -4 22 2 37 12 40 29 171 91 219 105 31 9 48 9 66 1 13 -6 34 -8 46
-5 15 4 30 -3 52 -26 18 -18 50 -41 72 -52 36 -17 42 -18 63 -3 20 13 23 21
18 47 -8 37 -32 67 -53 67 -8 0 -32 16 -53 35 -22 19 -49 35 -60 35 -12 0 -41
18 -65 40 -24 22 -50 40 -58 40 -8 0 -36 -18 -61 -40z m-48 -96 c-3 -3 -12 -4
-19 -1 -8 3 -5 6 6 6 11 1 17 -2 13 -5z m-177 -108 c0 -2 -3 -11 -6 -20 -9
-23 -24 -20 -24 4 0 11 7 20 15 20 8 0 15 -2 15 -4z"/>
<path d="M1833 3824 c-49 -54 -53 -77 -18 -100 16 -11 24 -23 20 -33 -3 -11 5
-25 24 -38 24 -19 37 -21 87 -16 33 3 67 10 77 15 20 10 23 53 5 62 -10 5 -10
7 0 12 17 8 15 20 -10 71 -16 31 -33 49 -56 59 -59 24 -82 18 -129 -32z"/>
<path d="M4433 3765 c-48 -29 -57 -50 -49 -109 7 -45 51 -98 92 -110 27 -8
131 19 154 39 9 8 21 15 27 15 16 0 34 49 27 76 -6 23 -10 25 -45 19 -33 -6
-40 -3 -55 20 -15 22 -15 30 -5 47 17 27 11 30 -27 16 -26 -10 -37 -10 -52 0
-24 15 -18 16 -67 -13z"/>
<path d="M1238 3654 c-8 -7 26 -84 42 -94 14 -8 40 -57 40 -75 0 -21 -40 -65
-59 -65 -26 0 -38 -99 -14 -117 9 -7 20 -10 25 -7 6 4 26 -9 46 -29 41 -38 76
-52 140 -56 50 -2 103 -31 122 -66 7 -14 17 -25 22 -25 10 0 80 -68 94 -91 5
-9 30 -26 57 -37 26 -12 47 -25 47 -30 0 -5 24 -28 53 -50 28 -22 62 -49 74
-61 14 -13 35 -21 56 -21 26 0 49 -12 96 -50 34 -27 74 -52 89 -56 15 -3 35
-9 44 -15 10 -5 28 -9 41 -9 12 0 33 -7 46 -16 13 -9 41 -21 63 -26 23 -5 52
-18 66 -28 13 -11 33 -20 43 -20 10 0 42 -11 71 -24 29 -13 78 -29 108 -37 30
-7 62 -18 70 -25 8 -7 33 -15 55 -19 22 -4 59 -16 82 -27 23 -10 59 -22 80
-25 21 -3 58 -14 82 -26 38 -17 74 -22 235 -28 105 -4 209 -13 231 -19 60 -17
333 -13 359 6 11 8 33 14 48 14 15 0 30 5 33 11 5 6 22 8 47 4 27 -5 52 -2 77
8 20 9 53 18 74 22 46 7 45 29 -1 33 -25 3 -32 8 -32 24 0 18 -4 19 -38 13
-20 -4 -42 -11 -48 -16 -6 -5 -18 -7 -27 -3 -8 3 -50 0 -93 -7 -102 -16 -172
-22 -259 -22 -114 1 -244 8 -250 15 -4 3 -19 3 -33 -1 -36 -10 -177 5 -211 23
-14 8 -66 20 -116 27 -49 7 -112 22 -140 34 -27 13 -95 37 -150 55 -55 18
-107 36 -115 41 -8 5 -26 14 -40 21 -14 6 -53 24 -86 39 -34 16 -83 33 -110
39 -27 6 -61 19 -75 30 -15 10 -44 22 -65 25 -22 4 -50 15 -64 23 -14 9 -41
25 -60 35 -19 9 -46 24 -60 32 -14 7 -32 17 -40 20 -29 11 -62 33 -88 58 -15
14 -46 36 -68 49 -76 43 -122 77 -144 108 -20 29 -21 32 -6 55 12 19 24 24 53
23 63 -1 69 0 55 14 -16 16 -15 47 2 54 8 3 25 -4 37 -15 24 -22 39 -27 39
-12 0 5 9 13 20 16 25 8 25 18 -2 74 -24 50 -44 70 -69 71 -9 0 -22 7 -29 16
-10 12 -32 15 -94 13 -45 -1 -124 -1 -176 1 l-95 2 -67 69 c-38 38 -68 78 -68
89 0 29 -55 62 -72 44z m412 -234 c0 -5 -7 -10 -15 -10 -8 0 -15 5 -15 10 0 6
7 10 15 10 8 0 15 -4 15 -10z m158 -32 c-6 -18 -28 -21 -28 -4 0 9 7 16 16 16
9 0 14 -5 12 -12z m-128 -18 c0 -5 -7 -10 -15 -10 -8 0 -15 5 -15 10 0 6 7 10
15 10 8 0 15 -4 15 -10z m124 -26 c23 -9 9 -24 -21 -24 -21 0 -24 2 -13 15 14
17 13 17 34 9z m-180 -19 c-7 -17 -20 -20 -28 -6 -7 10 3 21 20 21 8 0 11 -6
8 -15z m-203 -28 c-1 -12 -15 -9 -19 4 -3 6 1 10 8 8 6 -3 11 -8 11 -12z m309
-7 c0 -5 -4 -10 -10 -10 -5 0 -10 5 -10 10 0 6 5 10 10 10 6 0 10 -4 10 -10z
m-180 -20 c0 -5 -6 -10 -14 -10 -8 0 -18 5 -21 10 -3 6 3 10 14 10 12 0 21 -4
21 -10z m110 -4 c0 -3 -4 -8 -10 -11 -5 -3 -10 -1 -10 4 0 6 5 11 10 11 6 0
10 -2 10 -4z m-180 -27 c0 -6 -4 -7 -10 -4 -5 3 -10 11 -10 16 0 6 5 7 10 4 6
-3 10 -11 10 -16z m290 11 c0 -5 -9 -10 -20 -10 -11 0 -20 5 -20 10 0 6 9 10
20 10 11 0 20 -4 20 -10z m1670 -820 c0 -5 -4 -10 -9 -10 -6 0 -13 5 -16 10
-3 6 1 10 9 10 9 0 16 -4 16 -10z m180 0 c0 -5 -2 -10 -4 -10 -3 0 -8 5 -11
10 -3 6 -1 10 4 10 6 0 11 -4 11 -10z"/>
<path d="M3220 3560 c-13 -9 -12 -12 5 -25 24 -19 39 -15 43 13 4 24 -21 30
-48 12z"/>
<path d="M3372 3548 c6 -18 28 -21 28 -4 0 9 -7 16 -16 16 -9 0 -14 -5 -12
-12z"/>
<path d="M1975 3387 c-4 -10 -5 -21 -1 -24 10 -10 18 4 13 24 -4 17 -4 17 -12
0z"/>
<path d="M3694 3191 c-3 -3 -49 -6 -102 -7 -97 -1 -238 -20 -257 -35 -6 -4
-41 -4 -79 1 -44 5 -77 5 -91 -2 -18 -8 -29 -7 -46 6 -33 23 -137 23 -135 0 0
-9 -5 -19 -11 -21 -8 -3 -13 4 -13 16 0 18 -6 21 -44 21 -61 0 -89 -13 -121
-54 -24 -32 -26 -38 -15 -71 29 -86 183 -235 244 -235 11 0 43 -11 71 -24 91
-43 189 -61 322 -60 108 1 124 3 148 23 15 11 34 21 42 21 8 0 26 9 40 20 14
11 32 20 39 20 7 0 15 9 19 19 3 11 26 36 50 56 35 28 45 43 45 66 0 16 5 38
12 49 19 30 -1 37 -25 8 -12 -14 -36 -33 -53 -42 -20 -10 -34 -26 -40 -48 -9
-31 -13 -33 -54 -34 -25 -1 -65 -9 -89 -18 -24 -9 -82 -20 -129 -26 -72 -8
-104 -6 -195 10 -60 11 -121 26 -135 34 -15 8 -45 24 -67 36 -22 11 -51 27
-65 35 -14 8 -33 15 -42 15 -24 0 -88 66 -88 90 0 11 11 27 26 36 24 16 27 16
72 -7 35 -18 66 -24 122 -26 41 -1 119 -4 173 -7 76 -5 104 -3 127 9 19 10 58
15 115 15 47 0 118 5 157 11 87 13 152 5 178 -24 16 -16 20 -17 20 -5 0 9 10
23 23 31 18 13 19 16 5 16 -22 1 -24 34 -3 51 13 11 15 8 15 -14 0 -14 5 -26
10 -26 6 0 10 8 10 18 0 10 5 23 12 30 9 9 6 12 -13 12 -14 0 -29 3 -33 8 -9
8 -143 11 -152 3z"/>
<path d="M1966 2591 c-40 -27 -206 -202 -206 -218 0 -7 -8 -13 -19 -13 -22 0
-81 -54 -81 -75 0 -7 -14 -22 -31 -32 -18 -10 -42 -39 -56 -68 -14 -27 -33
-57 -43 -65 -9 -8 -23 -26 -30 -40 -7 -14 -26 -41 -41 -61 -16 -20 -29 -41
-29 -46 0 -8 -17 -40 -69 -133 -5 -8 -15 -28 -22 -45 -8 -16 -26 -48 -40 -70
-29 -43 -44 -131 -25 -139 6 -2 4 -5 -4 -5 -16 -1 -50 -69 -81 -160 -23 -65
-24 -101 -5 -101 9 0 12 -7 9 -21 -5 -19 -7 -19 -15 -5 -13 24 -38 2 -38 -33
1 -24 2 -24 14 -9 15 20 26 14 26 -15 0 -12 -5 -17 -14 -14 -18 7 -30 -34 -13
-45 19 -12 27 -10 34 9 3 10 13 26 22 36 11 13 16 43 18 99 2 73 4 82 25 92
19 10 22 19 20 47 -2 25 5 46 24 74 15 22 31 53 37 69 5 15 27 60 49 99 30 56
38 80 36 112 -3 37 -1 40 25 43 15 2 27 7 27 12 0 5 -8 7 -17 3 -16 -6 -16 -4
1 15 11 12 25 22 32 22 7 0 15 4 19 9 3 6 -9 7 -30 4 -38 -6 -52 15 -16 24 11
3 22 11 25 18 13 35 93 146 108 151 9 3 22 20 28 39 9 27 58 94 139 190 5 6
21 19 35 29 15 11 24 26 22 33 -3 8 2 17 12 20 9 3 25 14 35 25 10 10 28 18
40 18 16 0 18 3 8 9 -11 7 -10 13 4 35 10 14 21 26 24 26 4 0 13 11 20 24 8
13 23 29 35 34 11 6 17 11 11 11 -5 1 -23 -8 -39 -18z m-566 -816 c0 -8 -7
-15 -15 -15 -26 0 -18 20 13 29 1 1 2 -6 2 -14z m-38 -57 c-7 -7 -12 -8 -12
-2 0 6 3 14 7 17 3 4 9 5 12 2 2 -3 -1 -11 -7 -17z"/>
<path d="M4150 2528 c-38 -14 -23 -31 22 -25 l43 6 -25 -20 c-15 -12 -19 -19
-10 -18 8 1 27 -1 43 -6 47 -13 114 28 69 43 -7 2 -12 -3 -12 -12 0 -18 -8
-20 -30 -6 -12 7 -12 12 -2 22 6 6 12 15 12 19 0 9 -84 6 -110 -3z"/>
<path d="M4334 2514 c-17 -14 -17 -15 -1 -10 10 3 23 6 28 6 5 0 9 5 9 10 0
14 -13 12 -36 -6z"/>
<path d="M1117 1163 c-12 -11 -8 -83 4 -83 7 0 8 -7 4 -17 -4 -10 -9 -24 -12
-30 -3 -7 -1 -13 5 -13 10 0 42 70 42 91 0 6 -7 9 -15 6 -11 -5 -13 0 -8 23 5
28 -5 39 -20 23z"/>
<path d="M1075 1041 c-17 -29 -44 -137 -50 -207 -4 -43 -12 -85 -17 -91 -6 -7
-8 -19 -5 -28 4 -8 2 -17 -2 -19 -9 -6 -25 -83 -22 -106 1 -8 16 -28 32 -45
42 -43 63 -27 67 51 5 125 13 182 37 272 25 93 24 122 -1 122 -13 0 -18 11
-15 37 2 15 -16 26 -24 14z m13 -103 c-6 -18 -28 -21 -28 -4 0 9 7 16 16 16 9
0 14 -5 12 -12z m-15 -90 c-10 -21 -12 -21 -18 -5 -10 25 2 54 17 39 8 -8 8
-18 1 -34z"/>
</g>
</svg>
